<svg width="80" height="54" viewBox="0 0 80 54" fill="none" xmlns="http://www.w3.org/2000/svg">
<path fill-rule="evenodd" clip-rule="evenodd" d="M76.8486 31.7925L76.8485 32.0521C76.8485 33.2166 76.3952 34.3118 75.572 35.1354C74.7493 35.9581 73.6532 36.4124 72.4887 36.4124L56.7178 36.4114C54.3712 36.4124 52.3255 34.3667 52.3255 32.0192L52.3246 23.6142L40.275 23.6049L40.2851 38.7742C40.286 39.201 40.0749 39.6006 39.7238 39.8418L21.6266 52.2515C20.2637 53.1008 18.6686 53.2845 17.2006 52.7891C16.4409 52.5323 15.7617 52.1072 15.2069 51.5524C14.6913 51.0368 14.2827 50.4089 14.014 49.7013C13.1383 47.4088 14.088 44.768 16.27 43.4252L28.5727 34.4516L28.8249 23.1717L15.2689 23.6142C14.9097 23.6261 14.5642 23.4889 14.3119 23.2366L1.51466 10.4393C0.515506 9.44019 -0.035688 8.05894 0.00179701 6.64673C0.0391784 5.21433 0.647946 3.89625 1.71565 2.93645C3.75775 1.09731 6.94966 1.24901 8.98265 3.282L17.5586 11.858L47.0028 10.2225L44.8701 8.08991L32.6067 8.43732C31.3954 8.49127 30.188 8.02415 29.3122 7.15755L29.2967 7.14201C28.4183 6.2636 27.9584 5.08904 28.0023 3.83485C28.0836 1.48831 30.1623 -0.420318 32.6349 -0.421249L49.0813 0.00475323C49.4122 0.0138656 49.7266 0.149103 49.9616 0.384057L59.9152 10.3377C60.8009 11.2234 61.3165 12.399 61.3658 13.6495L61.8795 26.5181C61.9004 27.0218 62.3128 27.4138 62.8164 27.413L72.4117 27.3628C74.8641 27.3638 76.8486 29.3537 76.8486 31.7925ZM77.3842 22.3221C74.3594 25.3469 69.4398 25.3469 66.415 22.3221C63.3903 19.2974 63.3903 14.3777 66.415 11.3529C69.4398 8.32807 74.3595 8.32817 77.3842 11.3529C80.409 14.3776 80.409 19.2973 77.3842 22.3221Z" fill="#29BA66"/>
</svg>
