<svg width="66" height="56" viewBox="0 0 66 56" fill="none" xmlns="http://www.w3.org/2000/svg">
<path fill-rule="evenodd" clip-rule="evenodd" d="M0.812755 40.1385L0.793572 39.8483L0.79354 39.8479C-0.539215 19.6965 -1.41969 6.38365 8.75041 -3.78645C17.1638 -12.1999 30.3599 -12.1851 38.7923 -3.75245C42.5823 0.037586 44.9032 5.20597 45.3188 10.5583C50.6701 10.9732 55.8387 13.294 59.6286 17.0839C68.0607 25.516 68.0755 38.7118 59.6619 47.1254C55.0116 51.7758 48.6499 54.3481 39.6419 55.2209C31.9292 55.9683 22.7782 55.4918 10.6925 54.7367L10.6549 54.7342L4.61697 54.2867C3.80799 54.2266 3.08114 53.8745 2.54182 53.3352C2.00251 52.7959 1.65041 52.0694 1.59047 51.2602L1.1424 45.2217C1.14156 45.2104 1.14084 45.1989 1.14014 45.1877L1.13989 45.1838C1.03174 43.4513 0.920617 41.7703 0.812755 40.1385ZM27.408 22.2947L21.2357 16.1225L15.0771 22.2811L21.2494 28.4534L15.0909 34.6118L21.2635 40.7844L27.422 34.6259L33.5944 40.7984L39.753 34.6398L33.5806 28.4673L39.7394 22.3086L33.5668 16.136L27.408 22.2947Z" fill="#E6A532"/>
</svg>
