<svg width="74" height="85" viewBox="0 0 74 85" fill="none" xmlns="http://www.w3.org/2000/svg">
<g id="Group 14">
<path id="Shape" fill-rule="evenodd" clip-rule="evenodd" d="M64.1753 31.2242C58.018 37.3814 49.6988 36.4078 44.9175 31.6266L34.4185 21.1275L20.9445 21.9049C19.0424 22.0161 18.0208 19.711 19.3594 18.3724L25.6247 12.1071C21.8255 6.89567 22.2757 -0.469298 26.9763 -5.16995C33.1051 -11.2987 41.4201 -10.3863 46.2341 -5.57233L64.1753 12.3689C69.373 17.5666 69.374 26.0255 64.1753 31.2242ZM56.3229 23.7743C57.325 22.7722 57.325 21.1471 56.322 20.144C55.3199 19.142 53.6947 19.142 52.6927 20.144C51.6906 21.1461 51.6906 22.7712 52.6927 23.7733C53.6957 24.7763 55.3209 24.7763 56.3229 23.7743ZM34.8287 5.90925C33.8266 4.9072 33.8266 3.28204 34.8287 2.27999C35.8307 1.27794 37.4559 1.27794 38.4579 2.27999C39.4609 3.28302 39.4609 4.90818 38.4589 5.91023C37.4568 6.91228 35.8317 6.91228 34.8287 5.90925ZM47.3904 14.8418C48.3925 13.8397 48.3925 12.2145 47.3904 11.2125C46.3884 10.2104 44.7632 10.2104 43.7612 11.2125C42.7591 12.2145 42.7591 13.8397 43.7612 14.8418C44.7632 15.8438 46.3884 15.8438 47.3904 14.8418Z" fill="#5A1CBB"/>
<path id="Shape_2" fill-rule="evenodd" clip-rule="evenodd" d="M36.3024 30.7564L54.2436 48.6976C59.1147 53.5686 59.9004 61.8961 53.8412 67.9553C49.1406 72.6559 41.7756 73.1062 36.5642 69.307L30.2989 75.5722C28.9518 76.9193 26.6551 75.8739 26.7654 73.9881L27.5428 60.5141L17.0437 50.0151C12.1849 45.1562 11.3739 36.8295 17.4461 30.7574C22.6449 25.5586 31.1047 25.5586 36.3024 30.7564ZM24.8971 38.6086C23.8941 39.6116 23.8941 41.2368 24.8971 42.2398C25.8992 43.2419 27.5243 43.2419 28.5274 42.2388C29.5294 41.2368 29.5294 39.6116 28.5274 38.6096C27.5243 37.6065 25.8992 37.6065 24.8971 38.6086ZM33.8287 51.1713C32.8266 50.1693 32.8266 48.5441 33.8296 47.5411C34.8317 46.5391 36.4568 46.5391 37.4589 47.5411C38.4609 48.5432 38.4609 50.1683 37.4589 51.1704C36.4559 52.1734 34.8307 52.1734 33.8287 51.1713ZM42.7612 56.4726C41.7581 57.4757 41.7581 59.1008 42.7612 60.1038C43.7632 61.1059 45.3884 61.1059 46.3914 60.1029C47.3934 59.1008 47.3934 57.4757 46.3914 56.4736C45.3884 55.4706 43.7632 55.4706 42.7612 56.4726Z" fill="#5A1CBB"/>
</g>
</svg>
