<svg width="78" height="72" viewBox="0 0 78 72" fill="none" xmlns="http://www.w3.org/2000/svg">
<path fill-rule="evenodd" clip-rule="evenodd" d="M76.1287 35.6805L77.4516 37.0034C78.1828 37.7346 78.1828 38.918 77.4516 39.6492L45.7026 71.3982C44.9714 72.1294 43.788 72.1294 43.0568 71.3982L28.191 56.5323C26.1045 57.5257 23.5273 57.1602 21.8026 55.4355L16.5111 50.144C14.7864 48.4193 14.4208 45.842 15.4143 43.7556L0.548399 28.8898C-0.182799 28.1586 -0.182798 26.9752 0.5484 26.244L32.2974 -5.50501C33.0286 -6.23621 34.212 -6.23621 34.9432 -5.50501L36.2661 -4.18213L8.48566 23.5983C6.29727 25.7867 6.38546 29.4353 8.57385 31.6237L20.7058 43.7556C19.7124 45.8421 20.0779 48.4193 21.8026 50.144C23.5273 51.8687 26.1046 52.2343 28.191 51.2408L40.3229 63.3727C42.5113 65.5611 46.1599 65.6493 48.3483 63.4609L76.1287 35.6805ZM57.0842 12.2166L26.7405 42.5604C27.0889 41.0333 27.9217 35.0971 21.8026 28.978C21.0714 28.2468 21.0714 27.0634 21.8026 26.3322L48.2601 -0.125311C48.9913 -0.856508 50.1747 -0.856508 50.9059 -0.125311C55.3948 4.36365 56.7834 8.85534 57.0842 12.2166ZM29.7399 47.4982L42.9686 60.727C43.6998 61.4582 44.8832 61.4582 45.6144 60.727L74.7177 31.6237C75.4489 30.8925 75.4489 29.7092 74.7177 28.978L64.1347 18.395C62.64 16.9003 60.7577 16.0525 58.8094 15.783L27.0941 47.4982C27.824 46.7684 29.01 46.7684 29.7399 47.4982ZM40.3229 -2.77106C41.0541 -3.50226 42.2374 -3.50226 42.9686 -2.77106L44.2915 -1.44819L19.1569 23.6865C16.9685 25.8749 16.9685 29.4353 19.1569 31.6237C23.1622 35.629 23.3574 39.3197 23.2003 40.9586L11.2196 28.978C10.4884 28.2468 10.4884 27.0634 11.2196 26.3322L40.3229 -2.77106Z" fill="#F04667"/>
</svg>
