<svg width="78" height="68" viewBox="0 0 78 68" fill="none" xmlns="http://www.w3.org/2000/svg">
<path fill-rule="evenodd" clip-rule="evenodd" d="M70.9185 45.7176L75.6464 40.9897C78.7845 37.8516 78.7845 32.7727 75.6464 29.6345L64.8073 18.7955L66.8719 16.7309C69.1491 14.4536 69.1491 10.7498 66.8719 8.47254L58.6136 0.2142C56.3363 -2.06304 52.6325 -2.06304 50.3552 0.2142L48.2906 2.27879L37.4516 -8.56028C34.3134 -11.6985 29.2345 -11.6985 26.0963 -8.56028L21.3685 -3.83239L37.5548 28.5403C37.658 28.7674 37.8025 28.9532 37.9677 29.1184C38.1329 29.2835 38.3187 29.4281 38.5458 29.5313L70.9185 45.7176ZM52.4198 6.40795L60.6781 14.6663L62.7427 12.6017L54.4844 4.34337L52.4198 6.40795ZM36.5844 33.4334C36.0683 33.2063 35.4283 32.7727 34.8708 32.2153C34.3134 31.6578 33.8798 31.0178 33.5701 30.3365L18.1064 -0.570342L2.35363 15.1824C-0.784542 18.3206 -0.784541 23.3995 2.35363 26.5377L40.5484 64.7325C43.6866 67.8706 48.7655 67.8706 51.9037 64.7325L67.6564 48.9797L36.5844 33.4334Z" fill="#D96C47"/>
</svg>
